PathFileType	3	(X/Y/Z)	D:\Vicon Setup\UG\Test1\New Session\NewSession12.trc
DataRate	CameraRate	NumFrames	NumMarkers	Units	OrigDataRate	OrigDataStartFrame	OrigNumFrames
100.0	100.0	11	27	mm	100.0	429	351	
Frame#	Time	Sternum			LShoulder			RShoulder			LASIS			RASIS			RPSIS			LPSIS			RKneeLateral			RKneeMedial			RFibulaHead			RMidShank			RAnkleLateral			RAnkleMedial			RHeel			RMT5			RMT2			RToe			LKneeLateral			LKneeMedial			LFibulaHead			LMidShank			LAnkleLateral			LAnkleMedial			LHeel			LMT5			LMT2			LToe			
		X1	Y1	Z1	X2	Y2	Z2	X3	Y3	Z3	X4	Y4	Z4	X5	Y5	Z5	X6	Y6	Z6	X7	Y7	Z7	X8	Y8	Z8	X9	Y9	Z9	X10	Y10	Z10	X11	Y11	Z11	X12	Y12	Z12	X13	Y13	Z13	X14	Y14	Z14	X15	Y15	Z15	X16	Y16	Z16	X17	Y17	Z17	X18	Y18	Z18	X19	Y19	Z19	X20	Y20	Z20	X21	Y21	Z21	X22	Y22	Z22	X23	Y23	Z23	X24	Y24	Z24	X25	Y25	Z25	X26	Y26	Z26	X27	Y27	Z27	
429	4.28	-182.37534	1367.0037	497.45956	-371.35217	1436.6123	594.54065	0.72571701	1404.9309	576.36859	-304.0434	987.74103	559.79907	-49.345974	1008.9896	543.52167	-105.65193	1019.2402	721.10968	-235.61069	1009.4048	732.96429	-42.184525	525.51807	533.65161	-175.57239	514.61401	520.79675	-44.885479	442.03003	533.31641	-143.05887	284.86053	525.45038	-98.152321	91.447327	587.62604	-177.28439	120.70638	539.66992	-156.72026	64.728439	656.02771	-52.292786	31.234034	438.65802	-119.84491	62.317665	432.67581	-120.06755	45.521889	388.41943	-380.34549	526.35925	530.93164	-257.23135	495.99957	491.28748	-379.08817	485.53149	570.22412	-294.29623	351.33792	635.17151	-309.6622	265.44769	836.33527	-243.86108	230.83539	777.617	-227.274	292.90457	875.27521	-372.16995	125.86095	834.89758	-320.90601	114.66689	786.24414	-327.73218	51.282757	776.46906
430	4.29	-182.73199	1368.708	483.52475	-371.3858	1438.2687	581.60199	0.47395277	1407.2313	561.48053	-303.70154	990.31812	546.36224	-49.14669	1010.1481	529.89545	-105.27884	1021.4233	707.30103	-235.22942	1011.6603	719.32495	-42.842594	525.87256	528.26862	-176.0757	514.59143	516.49561	-45.646332	442.45142	529.39215	-143.75735	284.80627	522.31592	-98.515739	92.358513	586.8172	-177.91861	120.76275	538.74677	-156.8019	65.146614	656.19312	-52.513695	31.088734	438.27502	-120.03968	61.96909	432.25067	-119.9546	44.773102	388.06769	-380.63202	531.30115	504.58713	-257.12567	501.49356	463.3147	-379.63797	490.20169	542.89337	-296.15747	353.09824	604.35358	-311.57349	261.51358	803.22607	-245.90799	229.18808	743.31628	-229.20302	286.55276	844.20752	-375.63257	122.78404	795.11481	-324.09625	113.93559	746.02344	-331.27985	49.034966	733.70355
431	4.3	-183.14784	1370.1394	469.60757	-371.4086	1439.4155	568.29822	0.45876241	1409.2264	546.41772	-303.34076	992.62268	532.82397	-48.945808	1011.0247	516.32709	-105.09388	1023.3079	693.52692	-235.04468	1013.6555	705.70593	-43.591534	526.2124	523.42609	-176.56584	514.92828	511.00339	-46.353859	442.74796	525.9881	-143.91508	284.82623	519.49652	-99.043678	92.988815	586.08447	-178.49216	120.84363	537.83875	-157.77827	66.231369	655.2804	-52.669647	31.074286	438.09818	-120.25296	61.642826	431.81552	-119.80965	44.128784	387.69733	-380.73886	536.14532	478.96655	-257.05643	507.04794	436.32794	-380.0062	494.56775	516.17749	-297.59149	354.52921	573.63354	-313.47787	256.36182	769.52545	-248.11241	226.77956	707.76587	-231.28986	278.62039	812.71008	-378.8573	119.19233	754.18292	-327.03391	112.60379	704.74261	-334.58929	46.413712	689.49384
432	4.31	-183.65695	1371.2794	455.64346	-371.27304	1440.5391	555.52979	0.34179109	1411.0112	531.53619	-303.00076	994.58856	519.15045	-48.631203	1011.6981	502.83688	-105.08754	1024.7584	679.95947	-235.08855	1015.3346	692.07294	-44.56765	526.54614	519.25439	-177.53912	515.04303	505.18655	-47.045864	442.92102	522.6861	-144.23743	284.7652	516.85132	-99.4478	93.654839	585.48834	-179.06216	120.90556	536.95471	-158.25793	67.039528	654.86627	-52.755814	31.172722	438.17789	-120.43148	61.295284	431.39609	-119.67312	43.641964	387.31586	-380.59735	540.72974	454.06207	-256.89731	512.66565	410.21945	-380.20346	498.3598	490.20288	-298.54538	355.53918	543.03082	-315.40811	249.99097	735.32794	-249.72119	224.41742	670.83643	-233.13501	268.98325	780.68384	-381.72223	114.67465	711.46472	-329.7153	110.76173	662.26074	-337.48572	43.518177	643.32013
433	4.32	-184.19231	1372.1791	441.78287	-371.20212	1441.1499	542.32349	0.13827941	1412.4058	516.65021	-302.60562	996.21454	505.2933	-48.14259	1012.114	489.38611	-105.38165	1025.7063	666.52191	-235.39227	1016.6583	678.39917	-45.192062	526.69409	514.55139	-178.22577	515.24725	499.56146	-47.760807	443.09085	519.32178	-144.70261	284.74197	514.39539	-99.893951	94.292999	584.92163	-179.62857	120.6517	536.5434	-158.95596	67.289917	653.68536	-52.861923	31.022747	438.23535	-120.57093	60.98391	431.0722	-119.55146	43.278973	386.94904	-380.28235	545.02203	430	-256.771	518.30164	385.28754	-380.16672	501.23184	464.89487	-299.16388	356.10397	512.54565	-316.90463	241.93481	699.95648	-251.34412	220.02145	635.74854	-235.53668	257.86108	748.12909	-384.6814	109.83385	667.52338	-332.13208	108.69057	618.6051	-340.14883	40.724747	595.57318
434	4.33	-184.71101	1372.8529	427.95139	-371.1655	1441.7158	529.93176	0.021915106	1413.5515	501.83725	-302.19009	997.41937	491.3046	-47.658527	1012.2031	476.23871	-105.98434	1026.2603	653.1723	-236.08299	1017.6097	664.69757	-45.808342	526.9671	510.16199	-178.92793	515.25305	493.9949	-48.459213	443.35812	515.98413	-145.05669	285.15054	511.75372	-100.27425	94.953621	584.3006	-180.10854	120.82383	535.74536	-159.14758	68.341431	653.55902	-52.933514	30.978642	438.17667	-120.68684	60.765717	430.74789	-119.38584	43.05991	386.68604	-379.66501	548.75031	406.80585	-256.40564	523.82642	361.62625	-380.08948	503.38202	440.21979	-299.55753	356.10049	482.24841	-318.8627	233.2982	664.28223	-252.82991	215.12679	599.76904	-238.4593	245.3777	714.74072	-387.47095	104.58585	622.34076	-334.27945	106.42369	574.03998	-342.36734	38.063339	546.43378
435	4.34	-185.27704	1373.2549	414.01743	-371.42435	1441.9523	516.68506	-0.20301409	1414.035	487.07858	-301.58832	998.36646	477.103	-47.115612	1012.054	462.90668	-106.85541	1026.5088	640.00067	-236.97908	1018.0928	650.88281	-46.369965	527.17462	505.64331	-179.45316	515.07898	488.44269	-49.112755	443.66162	512.60626	-145.57787	285.22324	509.62503	-100.36166	95.864815	584.08813	-180.57985	121.26964	534.73407	-159.49564	69.305733	653.21484	-52.96949	30.952995	438.13544	-120.82369	60.423985	430.51733	-119.20811	42.872559	386.41895	-378.56857	551.88922	384.45621	-255.82957	529.00305	339.4371	-379.87079	504.73273	416.08981	-299.8371	355.52869	452.12717	-321.05188	223.80667	627.84381	-254.39131	209.42947	562.97906	-241.26865	231.55368	680.41241	-389.97766	99.122932	576.04364	-336.22733	104.06719	528.74738	-344.26318	35.777626	496.09229
436	4.35	-185.77399	1373.4083	400.08267	-371.48819	1441.7379	503.38113	-0.37091234	1414.2339	472.35703	-301.23132	998.67004	463.50653	-46.487957	1011.7192	449.53448	-107.92479	1026.3668	626.75409	-238.11594	1018.2135	637.02917	-46.92485	527.48853	501.22803	-180.33484	515.15326	484.22162	-49.79681	443.96759	509.30411	-146.14424	285.42218	507.56216	-100.8879	96.36734	583.33929	-181.04568	121.46162	533.87311	-159.82396	70.328751	652.92279	-53.00425	30.934811	438.12997	-120.90887	60.201843	430.24176	-119.05231	42.582317	386.26752	-377.2117	554.53809	363.18228	-254.987	533.742	318.88397	-379.34579	505.11212	392.27454	-299.90106	354.48087	422.0491	-323.20618	213.37779	590.32825	-255.88834	203.01511	525.49927	-244.36151	216.96712	644.8139	-392.49286	93.582573	528.99939	-337.99625	101.5548	482.86557	-345.90427	33.70787	445.13016
437	4.36	-186.29404	1373.2607	386.02533	-371.6214	1441.3986	490.03964	-0.68084818	1414.2079	457.86285	-300.19653	998.04114	450.71066	-45.774719	1011.2187	436.34286	-109.14919	1026.0255	613.5545	-239.34659	1018.0062	623.15668	-47.685547	527.84845	497.26422	-180.98283	514.86694	479.78909	-50.443474	444.27164	505.98956	-146.69963	285.41351	505.34283	-101.17558	96.95369	582.80817	-181.48161	121.61485	532.70294	-160.19623	71.20089	652.45197	-53.088299	30.741562	437.8595	-120.98044	59.968555	429.94034	-118.90247	42.412495	386.03183	-375.95248	556.62085	342.45956	-253.99426	537.94727	299.65085	-378.96353	505.05673	369.1777	-299.78574	353.00363	392.18735	-325.9325	202.67346	551.99744	-257.42331	196.06007	487.37274	-247.42213	201.5788	607.90692	-394.81015	87.976463	481.35117	-339.81601	99.09581	436.54037	-347.41583	32.192635	393.46609
438	4.37	-186.8398	1372.7428	371.93854	-371.76324	1440.6824	476.45535	-0.91395956	1413.7822	443.21399	-300.07947	998.03937	435.48428	-45.160297	1010.5026	423.33514	-110.43026	1025.4435	600.36487	-240.63335	1017.493	609.28235	-48.275566	528.17407	492.95169	-181.4928	514.79266	475.77002	-51.042572	444.62698	502.82495	-147.13638	285.74701	504.05603	-101.47819	97.679329	582.19183	-181.87614	121.91304	531.8194	-160.53218	72.336205	652.12378	-53.067146	30.687016	437.86606	-120.98968	59.796059	429.66995	-118.69055	42.272156	385.88602	-375.2084	558.22748	322.0405	-252.82645	541.38086	281.44968	-378.53561	504.3353	346.5553	-299.63123	351.11996	362.48975	-327.68872	190.8212	512.24951	-258.93964	188.68021	448.38751	-250.30869	185.36215	569.63257	-397.21445	82.711494	433.32047	-341.64917	96.844276	389.97424	-348.38678	33.933102	341.83597
439	4.38	-187.4178	1371.9103	357.72348	-372.16562	1439.7654	462.57178	-1.2681823	1413.1251	428.70105	-299.57755	997.22205	421.42841	-44.804066	1008.8444	411.94553	-111.81198	1024.6666	587.04504	-242.03001	1016.7032	595.40094	-48.805813	528.56305	488.75925	-181.93176	514.68665	471.6955	-51.53796	445.1084	499.74097	-147.4946	286.05414	502.08218	-101.62732	98.36116	581.61603	-182.03885	122.68166	531.38513	-160.85944	73.419922	651.48871	-53.072392	30.459877	437.54022	-121.04783	59.540066	428.91641	-118.46394	42.174953	385.75592	-374.25821	559.11981	302.4184	-251.71617	543.84314	264.01743	-377.97342	503.29715	324.77646	-299.30127	348.84949	333.11621	-329.96765	179.23108	472.05179	-260.68805	181.05469	409.30258	-253.65833	169.01828	529.50507	-399.65451	77.978729	384.93729	-343.45563	94.801041	343.29413	-349.80289	35.806633	290.87433
